<svg xmlns="http://www.w3.org/2000/svg" viewBox="0 0 4500 4500" style="fill-rule:evenodd;clip-rule:evenodd;stroke-linejoin:round;stroke-miterlimit:2;">
  <defs>
    <linearGradient id="g" x1="0" y1="0" x2="1" y2="1">
      <stop offset="0" style="stop-color:#012a4a"/>
      <stop offset="0.35" style="stop-color:#0077b6"/>
      <stop offset="0.65" style="stop-color:#0096c7"/>
      <stop offset="1" style="stop-color:#48cae4"/>
    </linearGradient>
  </defs>
  <path d="M3099.498,2601.606l-223.342,223.342c-102.129,102.129 -102.129,267.713 0,369.842l363.571,363.567l392.108,-392.108c49.042,-49.042 76.596,-115.562 76.596,-184.921l2.025,-2518.129l-138.067,-0c-240.562,0 -435.642,194.896 -435.863,435.458l-1.621,1738.358l-35.408,-35.408Z" style="fill:url(#g);fill-rule:nonzero;"/>
  <path d="M2255.873,2495.968l361.787,-361.787l100.062,100.058c170.217,170.217 170.217,446.188 0,616.404l-361.792,361.787l-100.058,-100.058c-170.217,-170.217 -170.217,-446.188 0,-616.404" style="fill:url(#g);fill-rule:nonzero;"/>
  <path d="M1781.566,2021.66l435.267,-435.267l100.058,100.062c170.217,170.212 170.217,446.188 0,616.404l-435.267,435.263l-100.058,-100.058c-170.217,-170.217 -170.217,-446.188 0,-616.404" style="fill:url(#g);fill-rule:nonzero;"/>
  <path d="M1452.911,1401.7l223.342,-223.342l223.342,223.342c102.129,102.129 102.129,267.713 0,369.842l-223.342,223.342l-223.342,-223.342c-102.129,-102.129 -102.129,-267.713 0,-369.842" style="fill:url(#g);fill-rule:nonzero;"/>
  <path d="M1198.319,1656.292c-544.479,544.479 -545.312,1428.088 -0.833,1972.567c544.483,544.479 1428.092,543.65 1972.571,-0.829l-155.287,-155.233c-128,-127.954 -322.675,-165.504 -486.833,-89.292c-302.346,140.367 -672.979,86.304 -922.188,-162.904c-249.192,-249.192 -303.217,-619.837 -162.871,-922.188c76.217,-164.196 38.658,-358.904 -89.342,-486.904l-155.217,-155.217Z" style="fill:url(#g);fill-rule:nonzero;"/>
</svg>
