<?xml version="1.0" encoding="UTF-8" standalone="no"?><!DOCTYPE svg PUBLIC "-//W3C//DTD SVG 1.1//EN" "http://www.w3.org/Graphics/SVG/1.1/DTD/svg11.dtd"><svg width="100%" height="100%" viewBox="0 0 4500 4500" version="1.1" xmlns="http://www.w3.org/2000/svg" xmlns:xlink="http://www.w3.org/1999/xlink" xml:space="preserve" xmlns:serif="http://www.serif.com/" style="fill-rule:evenodd;clip-rule:evenodd;stroke-linejoin:round;stroke-miterlimit:2;"><g id="Capa-1" serif:id="Capa 1"><path d="M3572.387,463.196c-240.562,0 -435.638,194.896 -435.863,435.458l-1.617,1738.363l-35.408,-35.408l-223.346,223.338c-102.125,102.133 -102.125,267.712 0,369.846l363.571,363.567l392.108,-392.108c49.046,-49.046 76.596,-115.567 76.596,-184.925l2.029,-2518.129l-138.071,-0Z" style="fill:url(#_Linear1);fill-rule:nonzero;"/><path d="M2255.871,2495.967c-170.217,170.217 -170.217,446.188 0,616.404l100.062,100.062l361.788,-361.792c170.217,-170.213 170.217,-446.188 0,-616.404l-100.058,-100.058l-361.792,361.787Z" style="fill:url(#_Linear2);fill-rule:nonzero;"/><path d="M1781.567,2021.658c-170.217,170.217 -170.217,446.192 0,616.408l100.058,100.058l435.267,-435.267c170.217,-170.212 170.217,-446.188 0,-616.404l-100.062,-100.062l-435.262,435.267Z" style="fill:url(#_Linear3);fill-rule:nonzero;"/><path d="M1452.912,1401.7c-102.133,102.129 -102.133,267.713 0,369.842l223.337,223.342l223.342,-223.342c102.129,-102.129 102.129,-267.713 0,-369.842l-223.342,-223.342l-223.338,223.342Z" style="fill:url(#_Linear4);fill-rule:nonzero;"/><path d="M1197.487,3628.858c544.483,544.483 1428.088,543.65 1972.567,-0.829l-155.288,-155.229c-128,-127.958 -322.675,-165.504 -486.833,-89.296c-302.342,140.367 -672.979,86.308 -922.187,-162.904c-249.192,-249.192 -303.217,-619.838 -162.867,-922.188c76.217,-164.192 38.654,-358.9 -89.342,-486.904l-155.217,-155.217c-544.483,544.479 -545.317,1428.088 -0.833,1972.567Z" style="fill:url(#_Linear5);fill-rule:nonzero;"/></g><defs><linearGradient id="_Linear1" x1="0" y1="0" x2="1" y2="0" gradientUnits="userSpaceOnUse" gradientTransform="matrix(3012.766012,-3957.446798,3957.446798,3012.766012,1205.00857,4823.547141)"><stop offset="0" style="stop-color:#0d1b2a;stop-opacity:1"/><stop offset="0.25" style="stop-color:#012a4a;stop-opacity:1"/><stop offset="0.5" style="stop-color:#0077b6;stop-opacity:1"/><stop offset="0.75" style="stop-color:#0096c7;stop-opacity:1"/><stop offset="1" style="stop-color:#48cae4;stop-opacity:1"/></linearGradient><linearGradient id="_Linear2" x1="0" y1="0" x2="1" y2="0" gradientUnits="userSpaceOnUse" gradientTransform="matrix(3012.766012,-3957.446798,3957.446798,3012.766012,980.155881,4652.368975)"><stop offset="0" style="stop-color:#0d1b2a;stop-opacity:1"/><stop offset="0.25" style="stop-color:#012a4a;stop-opacity:1"/><stop offset="0.5" style="stop-color:#0077b6;stop-opacity:1"/><stop offset="0.75" style="stop-color:#0096c7;stop-opacity:1"/><stop offset="1" style="stop-color:#48cae4;stop-opacity:1"/></linearGradient><linearGradient id="_Linear3" x1="0" y1="0" x2="1" y2="0" gradientUnits="userSpaceOnUse" gradientTransform="matrix(3012.766012,-3957.446798,3957.446798,3012.766012,456.83171,4253.967333)"><stop offset="0" style="stop-color:#0d1b2a;stop-opacity:1"/><stop offset="0.25" style="stop-color:#012a4a;stop-opacity:1"/><stop offset="0.5" style="stop-color:#0077b6;stop-opacity:1"/><stop offset="0.75" style="stop-color:#0096c7;stop-opacity:1"/><stop offset="1" style="stop-color:#48cae4;stop-opacity:1"/></linearGradient><linearGradient id="_Linear4" x1="0" y1="0" x2="1" y2="0" gradientUnits="userSpaceOnUse" gradientTransform="matrix(3012.766012,-3957.446798,3957.446798,3012.766012,-56.731093,3862.996928)"><stop offset="0" style="stop-color:#0d1b2a;stop-opacity:1"/><stop offset="0.25" style="stop-color:#012a4a;stop-opacity:1"/><stop offset="0.5" style="stop-color:#0077b6;stop-opacity:1"/><stop offset="0.75" style="stop-color:#0096c7;stop-opacity:1"/><stop offset="1" style="stop-color:#48cae4;stop-opacity:1"/></linearGradient><linearGradient id="_Linear5" x1="0" y1="0" x2="1" y2="0" gradientUnits="userSpaceOnUse" gradientTransform="matrix(3012.766012,-3957.446798,3957.446798,3012.766012,768.474134,4491.217685)"><stop offset="0" style="stop-color:#0d1b2a;stop-opacity:1"/><stop offset="0.25" style="stop-color:#012a4a;stop-opacity:1"/><stop offset="0.5" style="stop-color:#0077b6;stop-opacity:1"/><stop offset="0.75" style="stop-color:#0096c7;stop-opacity:1"/><stop offset="1" style="stop-color:#48cae4;stop-opacity:1"/></linearGradient></defs></svg>